<?xml version="1.0" standalone="no"?>
<!DOCTYPE svg PUBLIC "-//W3C//DTD SVG 20010904//EN"
 "http://www.w3.org/TR/2001/REC-SVG-20010904/DTD/svg10.dtd">
<svg version="1.0" xmlns="http://www.w3.org/2000/svg"
 width="128.000000pt" height="128.000000pt" viewBox="0 0 128.000000 128.000000"
 preserveAspectRatio="xMidYMid meet">
<metadata>
Created by potrace 1.14, written by Peter Selinger 2001-2017
</metadata>
<g transform="translate(0.000000,128.000000) scale(0.100000,-0.100000)"
fill="#000000" stroke="none">
<path d="M328 1137 c-9 -7 -35 -12 -58 -11 -35 1 -43 -2 -50 -22 -7 -17 -16
-22 -40 -22 -31 1 -54 -17 -44 -34 3 -4 23 -8 45 -8 32 0 39 -3 39 -20 0 -17
7 -20 48 -21 26 -1 50 -1 54 0 3 0 5 -7 3 -17 -2 -9 -4 -20 -4 -23 -1 -3 -18
-5 -38 -3 -46 3 -63 -4 -63 -25 0 -11 -10 -17 -37 -18 -68 -4 -71 -43 -2 -43
32 0 39 -3 39 -20 0 -20 17 -25 63 -20 10 1 29 -5 42 -14 37 -25 44 -3 47 149
l3 139 273 1 272 0 0 -132 c0 -90 4 -134 12 -139 10 -6 57 -8 121 -5 10 1 17
9 17 21 0 17 7 20 39 20 69 0 67 37 -2 42 -28 1 -37 6 -37 20 0 10 -6 19 -12
20 -18 2 -60 6 -80 7 -9 1 -15 8 -14 19 2 12 13 17 37 19 19 1 42 2 52 2 10 1
17 9 17 21 0 17 7 20 39 20 66 0 64 37 -2 42 -28 1 -37 6 -37 20 0 10 -3 18
-7 19 -5 0 -28 2 -51 4 -24 1 -49 8 -55 14 -17 17 -606 15 -629 -2z m-8 -78
c0 -14 -7 -19 -30 -19 -23 0 -30 5 -30 19 0 11 6 21 13 24 22 7 47 -5 47 -24z
m710 0 c0 -14 -7 -19 -30 -19 -22 0 -30 5 -30 18 0 26 6 30 35 24 16 -3 25
-11 25 -23z m-710 -170 c0 -14 -7 -19 -30 -19 -23 0 -30 5 -30 19 0 20 24 31
48 23 6 -2 12 -13 12 -23z m710 1 c0 -16 -7 -20 -33 -20 -26 0 -33 4 -34 20
-1 16 4 20 33 20 27 0 34 -4 34 -20z"/>
<path d="M455 1050 c-16 -25 14 -30 194 -30 l187 0 1 -327 c1 -181 2 -334 2
-340 1 -7 10 -13 21 -13 20 0 20 7 20 360 l0 360 -209 0 c-129 0 -212 -4 -216
-10z"/>
<path d="M413 984 c-6 -17 15 -37 29 -28 13 9 9 32 -7 38 -9 3 -18 -1 -22 -10z"/>
<path d="M501 961 c-9 -19 -8 -117 2 -127 9 -9 275 -9 284 0 10 10 11 108 2
127 -12 24 -276 24 -288 0z m247 -59 l3 -32 -105 0 -106 0 0 29 c0 16 5 31 10
33 6 2 52 3 103 3 l92 0 3 -33z"/>
<path d="M415 877 c-3 -7 -4 -158 -3 -337 l3 -325 230 0 230 0 3 23 c4 24 -29
45 -36 24 -3 -9 -57 -12 -196 -12 l-193 0 -1 303 c0 166 -1 310 -1 320 -1 20
-29 23 -36 4z"/>
<path d="M239 782 c-10 -2 -19 -12 -22 -22 -3 -13 -16 -20 -43 -22 -56 -4 -53
-32 4 -36 34 -3 42 -7 42 -23 0 -11 7 -19 18 -20 125 -7 132 -4 132 61 0 28
-5 52 -12 57 -13 8 -90 11 -119 5z m84 -56 c8 -19 -1 -26 -35 -26 -21 0 -28 5
-28 20 0 15 7 20 29 20 16 0 31 -6 34 -14z"/>
<path d="M508 779 c-12 -8 -18 -93 -8 -109 8 -13 261 -21 281 -10 13 9 19 93
8 112 -6 9 -42 13 -139 13 -72 0 -136 -3 -142 -6z m242 -59 c0 -19 -7 -20
-105 -20 -98 0 -105 1 -105 20 0 19 7 20 105 20 98 0 105 -1 105 -20z"/>
<path d="M930 776 c-6 -6 -10 -133 -10 -307 0 -229 -3 -298 -12 -301 -11 -3
-506 -2 -530 1 -5 1 -8 102 -8 225 0 173 -3 226 -13 235 -10 8 -17 7 -25 -1
-6 -6 -29 -13 -49 -14 -21 -1 -44 -2 -50 -3 -7 -1 -13 -10 -13 -21 0 -17 -7
-20 -38 -20 -43 0 -53 -6 -45 -26 3 -9 20 -14 44 -14 32 0 39 -3 39 -20 0 -21
2 -21 63 -24 20 -1 37 -5 37 -9 0 -4 0 -13 0 -21 0 -10 -11 -14 -33 -14 -60 1
-67 -2 -67 -22 0 -17 -7 -20 -39 -20 -66 0 -67 -40 -1 -42 23 -1 34 -7 37 -19
6 -21 26 -29 63 -25 31 3 51 -11 43 -30 -3 -9 -21 -14 -54 -14 -42 0 -49 -3
-49 -20 0 -17 -7 -20 -39 -20 -66 0 -67 -40 -1 -42 23 -1 34 -7 38 -20 5 -19
6 -19 64 -22 20 -1 42 -7 50 -13 18 -14 608 -15 626 0 7 5 32 11 55 12 55 3
54 2 60 24 3 14 13 19 34 19 38 -1 54 8 46 27 -3 10 -19 15 -44 15 -32 0 -39
3 -39 20 0 17 -7 20 -49 20 -52 0 -65 8 -56 33 4 9 18 13 42 11 45 -3 60 3 65
24 3 12 17 18 39 20 66 5 64 42 -2 42 -32 0 -39 3 -39 20 0 16 -7 20 -32 21
-18 1 -39 0 -47 -1 -16 -2 -31 18 -25 35 3 6 21 11 42 10 49 -2 62 3 62 26 0
15 7 19 38 19 43 0 53 6 45 26 -3 9 -20 14 -43 14 -32 0 -39 4 -42 23 -3 19
-8 22 -50 20 -29 -1 -48 3 -51 11 -8 21 6 32 38 33 59 1 65 3 65 22 0 16 8 20
43 23 56 4 59 32 3 36 -28 2 -40 9 -43 23 -6 21 -6 21 -81 23 -29 0 -57 -3
-62 -8z m100 -56 c0 -16 -7 -20 -30 -20 -23 0 -30 4 -30 20 0 16 7 20 30 20
23 0 30 -4 30 -20z m-710 -170 c0 -16 -7 -20 -30 -20 -23 0 -30 4 -30 20 0 16
7 20 30 20 23 0 30 -4 30 -20z m710 0 c0 -16 -7 -20 -30 -20 -23 0 -30 4 -30
20 0 16 7 20 30 20 23 0 30 -4 30 -20z m-710 -173 c0 -20 -4 -23 -30 -19 -21
3 -30 10 -30 23 0 14 7 19 30 19 25 0 30 -4 30 -23z m710 3 c0 -16 -7 -20 -30
-20 -23 0 -30 4 -30 20 0 16 7 20 30 20 23 0 30 -4 30 -20z m-710 -170 c0 -16
-7 -20 -30 -20 -23 0 -30 4 -30 20 0 16 7 20 30 20 23 0 30 -4 30 -20z m710 0
c0 -16 -7 -20 -30 -20 -23 0 -30 4 -30 20 0 16 7 20 30 20 23 0 30 -4 30 -20z"/>
<path d="M514 610 c-13 -5 -18 -19 -19 -53 -1 -25 2 -52 6 -58 11 -18 267 -20
284 -2 13 12 14 97 1 110 -8 9 -248 11 -272 3z m236 -59 c0 -23 -39 -28 -147
-23 -54 3 -63 6 -63 23 0 17 8 19 105 19 97 0 105 -1 105 -19z"/>
<path d="M518 440 c-20 -5 -23 -12 -24 -60 -1 -91 -2 -90 142 -90 69 0 134 4
144 10 15 8 17 20 15 70 -2 34 -5 64 -8 66 -7 8 -240 10 -269 4z m230 -72 l-3
-31 -100 -1 -100 -1 -3 33 -3 32 106 0 106 0 -3 -32z"/>
</g>
</svg>
